<svg preserveAspectRatio="none" width="100%" height="100%" overflow="visible" style="display: block;" viewBox="0 0 32 32" fill="none" xmlns="http://www.w3.org/2000/svg">
<g id="Favicon">
<rect width="32" height="32" fill="#4B6459"/>
<path id="Vector" d="M5.84243 16.3995C5.80376 15.6947 5.91927 14.9102 5.97378 14.206C6.07413 12.918 6.31165 11.7485 6.74703 10.5325C7.64927 8.0128 9.81899 6.31592 12.1828 5.26766C12.3281 5.20323 12.911 4.94201 13.0534 5.01173C13.045 5.13972 12.7176 5.28796 12.604 5.34311C11.8673 5.70092 11.1588 6.10052 10.5002 6.59142C10.2668 6.7654 9.98283 6.96111 9.77839 7.16858L9.79978 7.1604C10.0355 7.06843 10.3515 6.86864 10.5807 6.74085C12.4127 5.71916 14.5281 5.03066 16.6362 5.04752C17.4428 5.07097 18.1991 5.21922 18.9836 5.39457C21.6157 5.98279 24.2266 7.21264 25.4583 9.77751C25.9485 10.7982 26.2057 11.6898 26.5008 12.7793C27.2593 15.5814 27.2457 18.6179 25.8127 21.2093C23.7325 24.8716 18.9996 27.704 14.7548 26.8453C13.7174 26.6341 12.6278 26.344 11.6515 25.9302C10.2211 25.2944 8.78196 24.5485 7.71598 23.3687C6.22251 21.7022 5.28656 19.5112 5.02663 17.286C4.98096 16.8949 4.95991 14.6693 5.25807 14.54L5.29487 14.5534C5.3462 14.7462 5.3189 15.0193 5.32293 15.2198C5.32648 15.5608 5.33935 15.9016 5.36152 16.2419C5.44158 17.7056 5.808 19.1389 6.43974 20.4594C6.60178 20.8 6.77789 21.1443 6.98447 21.4598C6.90327 21.1953 6.77627 20.9448 6.67614 20.6869C6.53267 20.3175 6.41653 19.9213 6.32903 19.5349C6.31169 19.4583 6.262 19.3102 6.28648 19.2379L6.32898 19.2261C6.37815 19.2028 6.4059 19.1835 6.4621 19.1869C6.5522 19.2567 6.55716 19.358 6.56976 19.4642C6.57222 19.485 6.57067 19.496 6.56197 19.5148C6.58838 19.5601 6.68985 19.8556 6.71237 19.926C6.77339 20.1167 6.83665 20.2464 6.91431 20.4274C7.37624 21.5038 8.13199 22.6121 8.99793 23.3981C9.38063 23.7453 10.2086 24.3409 10.6789 24.5888C11.8372 25.1993 13.2602 25.7645 14.5637 25.9301C14.9619 25.9806 15.369 25.9742 15.7677 25.9528C16.2833 25.9252 16.7354 25.8008 17.2312 25.6821C18.0699 25.4815 18.8834 25.1547 19.6307 24.7217C19.8939 24.5573 20.1386 24.3588 20.3851 24.171C21.0089 23.6959 21.6134 23.098 22.0782 22.4599C22.9455 21.2696 23.5659 19.7918 23.7309 18.3197C23.8029 17.6779 23.779 16.9786 23.7418 16.3344C23.5735 14.4345 22.5884 12.3334 21.1872 11.0346C20.8807 10.731 20.5057 10.5346 20.1577 10.2972C18.9096 9.44571 17.339 9.0349 15.8305 9.13632C14.3752 9.23416 12.7555 9.79366 11.5598 10.6537C11.2916 10.8467 10.9895 11.165 10.7701 11.4188L10.5971 11.635C9.62166 13.0447 9.28024 15.0894 9.58493 16.7606C9.67269 17.242 9.81525 17.6901 9.98472 18.1486C10.0902 18.4338 10.2313 18.7461 10.3108 19.0356C10.2328 19.0545 10.1427 19.0788 10.0651 19.0942C9.48996 18.326 9.23461 17.1991 9.0343 16.2699C8.99312 16.0788 8.96963 15.7849 8.9295 15.6277C8.8726 15.6829 8.88686 15.6894 8.86614 15.7819C8.83916 16.1196 8.80191 16.5048 8.84128 16.8382C8.98649 18.0365 9.54581 19.0964 10.3193 20.0035C10.8842 20.6661 11.3382 21.0223 12.093 21.4247C14.203 22.5498 16.5503 22.592 18.409 20.9445C19.4402 20.0305 20.045 18.9127 20.1375 17.5144C20.2221 16.146 19.5561 14.7135 18.7132 13.6821C17.4082 12.0852 15.3342 11.9841 13.8251 13.36C13.2299 13.9028 12.646 14.8167 12.5535 15.6525C12.4987 17.0608 13.6837 18.4988 15.1073 18.5986C15.6477 18.6311 16.0663 18.4165 16.4623 18.0858C17.1268 17.531 17.3422 16.4553 16.7212 15.7917C16.2388 15.2763 15.6407 15.4724 15.3104 16.0275C15.3385 16.1877 15.3614 16.2541 15.268 16.3972C15.1885 16.519 15.0133 16.5751 14.9056 16.4581C14.3386 15.8424 15.1569 14.7424 15.8738 14.7922C16.3485 14.8252 16.9564 15.1089 17.2809 15.4571C17.6265 15.8285 17.8043 16.38 17.7933 16.8795C17.7787 17.5474 17.3283 18.4361 16.8478 18.8871C16.3841 19.3223 15.6351 19.5326 15.0043 19.5004C14.1307 19.4559 13.3344 19.03 12.7521 18.3794C12.1501 17.7067 11.8183 16.5696 11.8589 15.6803C11.8987 14.8061 12.4066 13.9403 12.96 13.292C13.2034 13.0069 13.2771 12.8791 13.5667 12.615C14.3674 11.8848 15.2939 11.6172 16.362 11.667C17.4281 11.7167 18.6443 12.3243 19.3506 13.1297C20.2555 14.1464 20.8117 15.4295 20.9364 16.7892C21.11 18.5852 20.4886 20.1037 19.1767 21.2803C18.6653 21.7392 17.9535 22.2638 17.332 22.5153C12.9972 24.2691 7.56397 20.2921 8.64859 15.4872C8.68564 15.323 8.76332 15.1744 8.78519 15.0069C8.86354 12.7228 10.0805 10.7053 12.0509 9.43181C13.46 8.5146 15.1273 8.08464 16.8006 8.20699C18.7197 8.34387 21.0637 9.40026 22.2931 10.9107C23.4444 12.3254 24.4035 14.423 24.6264 16.2385C24.8752 18.2658 24.3828 20.4839 23.2387 22.1677C22.1365 23.7899 20.7598 25.1345 18.96 25.9374C18.7416 26.0349 18.5221 26.0922 18.3084 26.1807C18.8845 26.1439 19.4546 25.9139 19.9942 25.6816C21.415 25.0698 22.6852 24.064 23.7361 22.9302C24.1876 22.3697 24.7741 21.621 25.0861 20.9775C25.9202 19.2571 26.4352 17.115 26.3054 15.2075C26.1621 13.0975 25.5154 11.2549 24.2677 9.55794C23.5057 8.5214 22.6786 7.67291 21.5593 6.99484C19.8357 6.00653 17.6148 5.42041 15.6281 5.54775C13.2288 5.74219 10.175 7.05177 8.57342 8.89551C7.59138 10.026 6.91609 11.5123 6.57582 12.9573C6.44772 13.5013 6.33751 13.9257 6.26293 14.494C6.21643 14.8484 6.1817 15.2042 6.15884 15.5609C6.14456 15.7964 6.13555 16.1577 6.10681 16.3811C6.10173 16.5049 6.10423 16.7019 5.9278 16.674C5.83013 16.6065 5.84662 16.5101 5.84243 16.3995Z" fill="var(--fill-0, #FEF9F4)"/>
</g>
</svg>
